<?xml version="1.0" encoding="UTF-8"?>
<svg width="21px" height="20px" viewBox="0 0 21 20" version="1.1" xmlns="http://www.w3.org/2000/svg" xmlns:xlink="http://www.w3.org/1999/xlink">
    <!-- Generator: Sketch 61.2 (89653) - https://sketch.com -->
    <title>Ig</title>
    <desc>Created with Sketch.</desc>
    <g id="Design" stroke="none" stroke-width="1" fill="none" fill-rule="evenodd">
        <g id="Homepage" transform="translate(-651.000000, -7122.000000)" fill="#C1D3DF">
            <g id="Group-19" transform="translate(-1.000000, 4620.000000)">
                <g id="Group-6" transform="translate(0.000000, 2175.000000)">
                    <path d="M666.365212,327 C669.762402,327 672.527592,329.711975 672.613175,333.088698 L672.615217,333.249989 L672.615217,340.749995 C672.615217,344.147349 669.903108,346.912381 666.526497,346.997958 L666.365212,347 L658.865206,347 C655.467469,347 652.702647,344.288052 652.617076,340.911288 L652.615034,340.749995 L652.615034,333.249989 C652.615034,329.852678 655.326767,327.08762 658.703896,327.002042 L658.865206,327 L666.365212,327 Z M666.365212,328.875002 L658.865206,328.875002 C656.49795,328.875002 654.564409,330.764156 654.492288,333.113924 L654.490202,333.249989 L654.490202,340.749995 C654.490202,343.116978 656.379079,345.050782 658.729125,345.122913 L658.865206,345.124998 L666.365212,345.124998 C668.731923,345.124998 670.665988,343.235855 670.738129,340.886061 L670.740216,340.749995 L670.740216,333.249989 C670.740216,330.883033 668.850805,328.949219 666.501263,328.877088 L666.365212,328.875002 Z M662.615205,332.000005 C665.376322,332.000005 667.615205,334.238767 667.615205,336.999992 C667.615205,339.761272 665.376322,342.000005 662.615205,342.000005 C659.85354,342.000005 657.615205,339.761272 657.615205,336.999992 C657.615205,334.238767 659.85354,332.000005 662.615205,332.000005 Z M662.615209,333.874989 C660.89243,333.874989 659.490206,335.276268 659.490206,336.999992 C659.490206,338.722493 660.89243,340.124994 662.615209,340.124994 C664.337433,340.124994 665.740212,338.722493 665.740212,336.999992 C665.740212,335.276268 664.337433,333.874989 662.615209,333.874989 Z M667.990213,330.958765 C668.357991,330.958765 668.656325,331.257054 668.656325,331.625021 C668.656325,331.992966 668.357991,332.291266 667.990213,332.291266 C667.62188,332.291266 667.323546,331.992966 667.323546,331.625021 C667.323546,331.257054 667.62188,330.958765 667.990213,330.958765 Z" id="Ig"></path>
                </g>
            </g>
        </g>
    </g>
</svg>