<?xml version="1.0" encoding="UTF-8"?>
<svg width="20px" height="20px" viewBox="0 0 20 20" version="1.1" xmlns="http://www.w3.org/2000/svg" xmlns:xlink="http://www.w3.org/1999/xlink">
    <!-- Generator: Sketch 61.2 (89653) - https://sketch.com -->
    <title>Fb</title>
    <desc>Created with Sketch.</desc>
    <g id="Design" stroke="none" stroke-width="1" fill="none" fill-rule="evenodd">
        <g id="Homepage" transform="translate(-547.000000, -7122.000000)" fill="#C1D3DF" fill-rule="nonzero">
            <g id="Group-19" transform="translate(-1.000000, 4620.000000)">
                <g id="Group-6" transform="translate(0.000000, 2175.000000)">
                    <path d="M565.500012,327 L550.5,327 C549.121249,327 548,328.121251 548,329.5 L548,344.5 C548,345.878777 549.121249,347 550.5,347 L558,347 L558,340.124994 L555.5,340.124994 L555.5,337 L558,337 L558,334.49999 C558,332.428766 559.678786,330.750004 561.750009,330.750004 L564.250011,330.750004 L564.250011,333.874989 L563.00001,333.874989 C562.31001,333.874989 561.750009,333.809989 561.750009,334.49999 L561.750009,337 L564.875012,337 L563.625011,340.124994 L561.750009,340.124994 L561.750009,347 L565.500012,347 C566.878791,347 568.000014,345.878777 568.000014,344.5 L568.000014,329.5 C568.000014,328.121251 566.878791,327 565.500012,327 Z" id="Fb"></path>
                </g>
            </g>
        </g>
    </g>
</svg>