<?xml version="1.0" encoding="UTF-8"?>
<svg width="49px" height="37px" viewBox="0 0 49 37" version="1.1" xmlns="http://www.w3.org/2000/svg" xmlns:xlink="http://www.w3.org/1999/xlink">
    <!-- Generator: Sketch 61.2 (89653) - https://sketch.com -->
    <title>“</title>
    <desc>Created with Sketch.</desc>
    <g id="Design" stroke="none" stroke-width="1" fill="none" fill-rule="evenodd">
        <g id="About" transform="translate(-396.000000, -2439.000000)" fill="#FFFFFF" fill-rule="nonzero">
            <g id="Group-6" transform="translate(396.000000, 2439.000000)">
                <path d="M9.30952381,37 L20.4444444,25.040404 C13.5079365,25.040404 12.4126984,19.6212121 12.4126984,14.9494949 C12.4126984,11.2121212 19.1666667,5.79292929 23,1.30808081 L21.5396825,0 C18.4365079,3.36363636 0,23.7323232 0,25.2272727 C0,31.3939394 5.11111111,37 9.30952381,37 Z M35.3095238,37 L46.4444444,25.040404 C39.5079365,25.040404 38.4126984,19.6212121 38.4126984,14.9494949 C38.4126984,11.2121212 45.1666667,5.79292929 49,1.30808081 L47.5396825,0 C44.4365079,3.36363636 26,23.7323232 26,25.2272727 C26,31.3939394 31.1111111,37 35.3095238,37 Z" id="“"></path>
            </g>
        </g>
    </g>
</svg>