<?xml version="1.0" encoding="UTF-8"?>
<svg width="25px" height="20px" viewBox="0 0 25 20" version="1.1" xmlns="http://www.w3.org/2000/svg" xmlns:xlink="http://www.w3.org/1999/xlink">
    <!-- Generator: Sketch 61.2 (89653) - https://sketch.com -->
    <title>Tw</title>
    <desc>Created with Sketch.</desc>
    <g id="Design" stroke="none" stroke-width="1" fill="none" fill-rule="evenodd">
        <g id="Homepage" transform="translate(-597.000000, -7122.000000)" fill="#C1D3DF" fill-rule="nonzero">
            <g id="Group-19" transform="translate(-1.000000, 4620.000000)">
                <g id="Group-6" transform="translate(0.000000, 2175.000000)">
                    <path d="M622.615034,329.367697 C621.700034,329.769236 620.724477,330.035386 619.70781,330.16462 C620.753922,329.540003 621.552256,328.558463 621.927811,327.375384 C620.952255,327.956924 619.875032,328.367696 618.727809,328.596924 C617.801142,327.610768 616.48114,327 615.041139,327 C612.247804,327 609.998357,329.267697 609.998357,332.047699 C609.998357,332.44771 610.032246,332.832322 610.115024,333.198489 C605.920021,332.993878 602.207796,330.983082 599.713905,327.920001 C599.278349,328.675385 599.022793,329.540003 599.022793,330.47077 C599.022793,332.218488 599.922794,333.767712 601.264462,334.664601 C600.453905,334.649212 599.658349,334.413879 598.98446,334.043101 C598.98446,334.05849 598.98446,334.07849 598.98446,334.09849 C598.98446,336.550769 600.733906,338.587715 603.027796,339.056938 C602.616685,339.169216 602.168907,339.223105 601.704462,339.223105 C601.381128,339.223105 601.055017,339.204605 600.748906,339.136938 C601.402795,341.135384 603.258352,342.604608 605.464465,342.65233 C603.747797,343.995386 601.567795,344.804609 599.207793,344.804609 C598.793904,344.804609 598.396681,344.786165 598.000014,344.735387 C600.235016,346.176944 602.884463,347 605.741132,347 C615.027806,347 620.104477,339.307716 620.104477,332.639988 C620.104477,332.416933 620.096699,332.201544 620.086143,331.987699 C621.087811,331.276926 621.928923,330.389231 622.615034,329.367697 Z" id="Tw"></path>
                </g>
            </g>
        </g>
    </g>
</svg>